<svg 
 xmlns="http://www.w3.org/2000/svg"
 xmlns:xlink="http://www.w3.org/1999/xlink"
 width="49px" height="41px">
<path fill-rule="evenodd"  fill="rgb(232, 102, 60)"
 d="M48.189,9.146 L40.457,1.413 C39.558,0.514 38.100,0.514 37.201,1.413 L19.79,19.536 L11.661,12.119 C10.762,11.219 9.305,11.220 8.406,12.119 L0.673,19.851 C0.225,20.750 0.225,22.208 0.673,23.107 L9.416,31.849 C9.496,31.967 9.588,32.78 9.690,32.180 L17.422,39.913 C17.854,40.344 18.440,40.587 19.50,40.587 C19.661,40.587 20.246,40.344 20.678,39.913 L48.189,12.401 C48.621,11.970 48.864,11.384 48.864,10.774 C48.864,10.163 48.621,9.577 48.189,9.146 Z"/>
</svg>