<svg 
 xmlns="http://www.w3.org/2000/svg"
 xmlns:xlink="http://www.w3.org/1999/xlink"
 width="46px" height="46px">
<path fill-rule="evenodd"  fill="rgb(232, 102, 60)"
 d="M45.988,25.932 L45.988,20.47 L41.73,19.654 C40.895,18.685 40.644,17.743 40.320,16.833 L44.378,14.37 L41.436,8.941 L36.980,11.60 C36.347,10.319 35.658,9.630 34.918,8.998 L37.36,4.542 L31.940,1.600 L29.144,5.658 C28.234,5.335 27.292,5.83 26.323,4.906 L25.930,0.9 L20.45,0.9 L19.652,4.906 C18.683,5.83 17.741,5.335 16.832,5.658 L14.36,1.600 L8.939,4.542 L11.57,8.998 C10.317,9.630 9.628,10.319 8.996,11.60 L4.540,8.942 L1.598,14.38 L5.655,16.833 C5.332,17.743 5.81,18.686 4.904,19.655 L0.11,20.48 L0.10,25.932 L4.904,26.325 C5.81,27.294 5.332,28.236 5.655,29.145 L1.599,31.942 L4.541,37.37 L8.996,34.920 C9.628,35.660 10.318,36.350 11.58,36.982 L8.941,41.437 L14.36,44.379 L16.832,40.323 C17.741,40.645 18.684,40.897 19.652,41.74 L20.45,45.990 L25.930,45.990 L26.323,41.74 C27.292,40.897 28.234,40.645 29.144,40.322 L31.940,44.379 L37.36,41.437 L34.918,36.981 C35.658,36.349 36.348,35.660 36.980,34.919 L41.436,37.37 L44.378,31.941 L40.321,29.145 C40.644,28.235 40.895,27.294 41.73,26.325 L45.988,25.932 ZM22.988,34.490 C16.636,34.490 11.488,29.341 11.488,22.990 C11.488,16.638 16.636,11.490 22.988,11.490 C29.340,11.490 34.488,16.638 34.488,22.990 C34.488,29.341 29.340,34.490 22.988,34.490 Z"/>
</svg>